# xmcd CD database file
#
# Track frame offsets:
#	187
#	15367
#	42830
#	56837
#	66422
#	80922
#	96840
#	116727
#	133800
#	152295
#
# Disc length: 2241 seconds
#
# Revision: 0
# Processed by: cddbd v1.5PL3 Copyright (c) Steve Scherf et al.
# Submitted via: CDex 1.50beta8
#
DISCID=8408bf0a
DTITLE=ZELDA - ZELDA
DYEAR=1900
DGENRE=Rock
TTITLE0=エスケイプ
TTITLE1=真暗闇 -ある日の光景-
TTITLE2=月光飛翔（ムーンライト・フライト）
TTITLE3=ロボトメイア
TTITLE4=開発地区はいつでも夕暮れ
TTITLE5=ミラージュ・ラヴァー
TTITLE6=密林伝説
TTITLE7=Ash-Lah
TTITLE8=と・ら・わ・れ
TTITLE9=ソナタ815
EXTD=
EXTT0=
EXTT1=
EXTT2=
EXTT3=
EXTT4=
EXTT5=
EXTT6=
EXTT7=
EXTT8=
EXTT9=
PLAYORDER=
